<?xml version="1.0" encoding="UTF-8" standalone="no"?>
<svg
   xmlns:dc="http://purl.org/dc/elements/1.1/"
   xmlns:cc="http://creativecommons.org/ns#"
   xmlns:rdf="http://www.w3.org/1999/02/22-rdf-syntax-ns#"
   xmlns:svg="http://www.w3.org/2000/svg"
   xmlns="http://www.w3.org/2000/svg"
   xmlns:sodipodi="http://sodipodi.sourceforge.net/DTD/sodipodi-0.dtd"
   xmlns:inkscape="http://www.inkscape.org/namespaces/inkscape"
   version="1.0"
   width="195.59375pt"
   height="224.29942pt"
   viewBox="0 0 195.59375 224.29943"
   preserveAspectRatio="xMidYMid meet"
   id="svg78"
   sodipodi:docname="logo-white.svg"
   inkscape:version="0.92.2 5c3e80d, 2017-08-06">
  <defs
     id="defs82" />
  <sodipodi:namedview
     pagecolor="#ffffff"
     bordercolor="#666666"
     borderopacity="1"
     objecttolerance="10"
     gridtolerance="10"
     guidetolerance="10"
     inkscape:pageopacity="0"
     inkscape:pageshadow="2"
     inkscape:window-width="1920"
     inkscape:window-height="1003"
     id="namedview80"
     showgrid="false"
     fit-margin-top="2.5"
     fit-margin-right="2.5"
     fit-margin-bottom="2.5"
     fit-margin-left="2.5"
     inkscape:zoom="1.18"
     inkscape:cx="-276.55113"
     inkscape:cy="206.45501"
     inkscape:window-x="0"
     inkscape:window-y="0"
     inkscape:window-maximized="1"
     inkscape:current-layer="svg78" />
  <metadata
     id="metadata2">
Created by potrace 1.10, written by Peter Selinger 2001-2011
<rdf:RDF>
  <cc:Work
     rdf:about="">
    <dc:format>image/svg+xml</dc:format>
    <dc:type
       rdf:resource="http://purl.org/dc/dcmitype/StillImage" />
    <dc:title></dc:title>
  </cc:Work>
</rdf:RDF>
</metadata>
  <path
     style="fill:#f9f9f9;stroke:none;stroke-width:0.1"
     inkscape:connector-curvature="0"
     id="path4"
     d="m 123.59376,3.0994154 c -1.1,0.2 -7.2,2.9 -13.6,5.8 -12.700004,5.9999996 -13.600004,6.1999996 -32.400004,7.3999996 -13.9,0.9 -17.5,2 -21.9,6.7 -2.3,2.6 -2.5,2.6 -7.6,1.4 -12.6,-3 -27.1,1 -35.1,9.8 -10.9000003,11.8 -13.50000028,29.8 -6.9000003,47.5 1.2,3.2 12.7000003,20.800005 28.7000003,43.800005 14.6,21.1 27.6,40.6 28.9,43.4 3.3,7.2 5.2,15.4 6.3,28.2 0.6,6.2 1.7,12.6 2.5,14.2 3.4,6.6 17.9,10.5 38.600004,10.5 20.5,0 31.4,-2.5 55.3,-12.7 14,-6 18.9,-9.5 21.7,-15.3 3.4,-6.9 2.5,-14 -3.6,-28.4 l -4.9,-11.5 v -15 c 0,-17.6 1.8,-27.9 7.2,-40.000005 4.4,-10.2 6.3,-19.9 6.3,-33.1 0,-21 -5.9,-37.4 -17,-47.7 -6.6,-6.1 -17.2,-11.7999996 -26.5,-14.1999996 -5.5,-1.3999999 -21.3,-1.8999999 -26,-0.8 z m 26.6,11.2999996 c 15.5,4.8 26.3,16.2 31.5,33.5 1.4,4.4 1.8,9.2 1.8,18 0,11.3 -0.3,12.9 -4.7,27.8 -2.6,8.700005 -5.2,18.100005 -5.7,21.000005 l -0.9,5.2 0.5,-6.5 c 1.5,-20.300005 1.6,-24.000005 1,-27.400005 -0.4,-2 -1,-3.4 -1.5,-3.2 -0.4,0.3 -2.2,3.3 -3.9,6.8 -2.9,5.6 -3.3,7.7 -4.2,19.300005 -1.1,14.8 -1.7,17.5 -3.6,17.5 -1.9,0 -3,-3.1 -3.9,-10.6 -0.8,-7.6 -1.5,-8.6 -5.1,-8.2 -2.5,0.3 -2.9,0.8 -3.1,3.8 -0.9,12.4 -1.4,14.1 -4.1,15.1 -1.5,0.6 -4.5,1.1 -6.6,1.1 -6.4,0.1 -7.2,-1.8 -7.8,-17 -0.3,-7.1 -1,-13.700005 -1.6,-14.700005 -1.8,-3.2 -5.4,8.500005 -6.3,20.500005 -0.4,5.8 -0.8,10.6 -0.8,10.8 -0.2,1 -11.5,5.3 -15.2,5.8 -5.5,0.8 -6.800004,-0.5 -9.800004,-9.7 -1.2,-3.6 -3.2,-7.5 -4.4,-8.6 -2.1,-2 -6,-4.3 -7.1,-4.3 -1.4,0 -0.4,5.8 1.4,8.8 6.2,10.1 3.5,22.2 -5,22.2 -4.7,0 -8.3,-3.3 -13,-12 -5.4,-10.1 -9.2,-14.2 -14.9,-15.9 -2.4,-0.7 -4.9,-1.5 -5.7,-1.8 -1.4,-0.5 7.1,13.9 14.5,24.5 6.6,9.6 7.4,11.3 6.3,12.4 -1.9,1.9 -6.7,-2.8 -19.4,-19.4 -28.7,-37.300005 -34.6,-49.900005 -33.6,-71.000005 0.6,-12.7 3.5,-18.5 11.1,-22.2 7.1,-3.5 14.3,-4.4 18.5,-2.2 4.8,2.5 5.5,4.7 4.7,14.5 -1,14.6 3.2,25.8 14,36.6 5.5,5.6 16,12.4 17.1,11.2 0.9,-0.9 -4.6,-10.9 -11.4,-20.6 -8.7,-12.6 -10.5,-17.4 -10.6,-28.2 -0.1,-7.8 0.2,-9 2.9,-13.4 4.6,-7.5 10.3,-10 22.5,-10 11.9,0 18.100004,2 24.800004,8 5.3,4.8 10.1,13.5 12.3,22.5 0.9,3.3 1.4,11 1.4,19.2 v 13.7 l 3,-1.9 c 5.9,-3.7 7,-6.2 7,-16.3 -0.1,-11.4 -1.6,-17.9 -6.7,-28.7 -3,-6.2 -5.8,-10.1 -10.3,-14.7 -6.2,-6.2 -6.2,-6.2 -4,-7.7 8.6,-5.7 26.6,-7.3 38.6,-3.6 z m 16.5,122.300005 c 3.6,1.9 4.4,4.5 4.4,14.8 0,5.6 0.7,8.8 4,17.4 2.2,5.8 4,11.5 4,12.6 0,1.8 -0.4,2 -3.2,1.3 -6,-1.3 -21.1,-1.9 -32.9,-1.3 -15.2,0.9 -30.1,4 -48.200004,10 -8.1,2.7 -15,4.9 -15.2,4.9 -0.3,0 -0.5,-2.4 -0.5,-5.3 0,-8.6 -1.9,-17.6 -5,-23.8 -4.8,-9.4 -4.9,-9.2 10,-16.8 13.3,-6.8 28.900004,-11.5 47.900004,-14.6 11.3,-1.9 30.4,-1.4 34.7,0.8 z m 1.7,56.7 c 8.3,2.4 2.2,5.9 -18.8,10.6 -6,1.3 -15.3,3.6 -20.5,4.9 -16.2,4.3 -36.700004,4.4 -42.600004,0.1 -1.6,-1.2 -1.5,-1.5 2.4,-4 7.6,-4.8 25.700004,-9.8 46.700004,-13 5.1,-0.8 28.8,0.3 32.8,1.4 z" />
</svg>
